<svg width="750" height="537" viewBox="0 0 750 537" fill="none" xmlns="http://www.w3.org/2000/svg">
<path d="M592 445.301H189.6C139.5 451.001 108.6 458.901 108.6 467.601C108.6 485.101 234.9 499.301 390.8 499.301C546.7 499.301 673 485.101 673 467.601C673 458.901 642.1 451.101 592 445.301Z" fill="#E1E1E1" fill-opacity="0.8"/>
<path d="M739.853 449C742.728 439.888 739.853 428.497 735.062 419.504C728.833 407.754 719.729 396.843 718.172 383.534C715.297 358.355 740.572 337.012 739.613 311.593C738.416 281.378 700.922 261.835 700.803 231.619C700.683 203.323 733.983 181.381 729.312 153.444C725.119 128.385 694.933 119.272 676.606 101.887C658.638 84.8606 655.403 55.3649 636.357 39.4181C621.264 26.7086 604.614 17.5961 584.49 17.1165C571.313 16.7568 560.293 20.8334 547.715 24.0708C515.493 32.224 482.551 9.80255 451.886 3.4478C427.929 -1.46814 402.294 -1.10844 378.457 4.407C361.207 8.36374 344.677 14.4787 327.547 19.0349C310.178 23.5912 296.163 23.5912 278.675 19.8742C237.827 10.8817 175.059 36.5405 146.31 61.1202C114.447 88.3377 113.01 123.589 97.9166 163.036C83.3026 201.165 79.5892 243.13 62.9389 280.419C53.7153 300.922 40.7783 319.627 32.3933 340.609C18.7376 374.901 18.498 414.588 31.9141 449H739.853Z" fill="white" fill-opacity="0.2"/>
<path d="M523.8 476.5C526.9 476.5 529.1 473.4 527.9 470.5C524.5 462.2 515 456.5 506 453.8C490.1 449 473.1 449.1 456.5 448.4C439.9 447.7 422.8 445.9 408.1 437.9C403.3 435.3 398.9 431.9 395.2 427.9V327.9H371V427.9C367.2 431.9 362.8 435.3 358.1 437.9C343.5 445.9 326.4 447.7 309.7 448.4C293.1 449.1 276.2 449.1 260.2 453.8C251.1 456.5 241.6 462.2 238.3 470.5C237.1 473.4 239.3 476.5 242.4 476.5C244.6 476.5 246.8 476.5 249 476.5L248.6 476.4C248.9 473.7 251 471.5 253.5 470.4C256 469.3 258.7 467.4 261.4 467.2C274.7 466 491.5 466 504.8 467.2C507.5 467.4 510.3 469.3 512.7 470.4C515.2 471.5 517.3 473.8 517.6 476.4L517.2 476.5H523.8Z" fill="#022A44"/>
<path d="M384 437.4H383.9C380.1 437.4 377 434.3 377 430.5V401.4C377 397.6 380.1 394.5 383.9 394.5H384C387.8 394.5 390.9 397.6 390.9 401.4V430.5C390.9 434.2 387.8 437.4 384 437.4Z" fill="#352F6C"/>
<path d="M635.5 425.301C465.4 399.901 293.6 399.901 123.5 425.301C119 426.001 114.9 422.501 114.9 417.901V108.101C114.9 103.501 119 100.001 123.5 100.701C293.6 126.101 465.4 126.101 635.5 100.701C640 100.001 644.1 103.501 644.1 108.101V417.801C644.1 422.501 640 426.001 635.5 425.301Z" fill="#022A44"/>
<path d="M629.9 423.401C460.5 397.301 289.5 397.301 120.1 423.401C120.1 318.401 120.1 213.301 120.1 108.301C289.5 134.401 460.5 134.401 629.9 108.301C629.9 213.301 629.9 318.301 629.9 423.401Z" fill="#A4B0BC"/>
<path d="M610.8 122H490.3V193H610.8V122Z" fill="#92A1AD"/>
<path d="M124.6 105.4C124.6 210.4 124.6 315.5 124.6 420.5C138.1 418.4 151.6 416.5 165.2 414.8L244.2 119.5C204.2 116.3 164.3 111.6 124.6 105.4Z" fill="#CBCCCD"/>
<path d="M210.3 332.502C196.3 333.602 181.3 331.402 168.4 326.102C148.9 317.602 137.4 300.502 124.5 285.202C124.5 330.402 124.5 375.502 124.5 420.702C293.9 394.602 464.9 394.602 634.3 420.702C634.3 337.002 634.3 253.302 634.3 169.602C511.8 221.902 389.8 269.402 265 317.602C246.8 325.002 229.7 331.402 210.3 332.502Z" fill="#E9EAEC"/>
<path d="M485.2 123.5H271.2V336.7H485.2V123.5Z" fill="#708491"/>
<path d="M266.9 167.9H124V285.1H266.9V167.9Z" fill="#92A1AD"/>
<path d="M634.3 211H490.8V333.5H634.3V211Z" fill="#708491"/>
<path d="M687.8 200.801H498.1V326.101H687.8V200.801Z" fill="#352F6C"/>
<path d="M537.4 215.602C525.4 215.602 515.7 225.302 515.7 237.302C515.7 249.302 525.4 259.002 537.4 259.002C549.4 259.002 559.1 249.302 559.1 237.302C559.1 225.302 549.4 215.602 537.4 215.602ZM537.4 250.502C530.1 250.502 524.3 244.602 524.3 237.402C524.3 230.102 530.2 224.302 537.4 224.302C544.7 224.302 550.5 230.202 550.5 237.402C550.6 244.602 544.7 250.502 537.4 250.502Z" fill="#FFD255"/>
<path d="M537.4 250.501C530.3 250.501 524.5 244.801 524.3 237.701H515.7C515.9 249.501 525.5 259.001 537.4 259.001C549.3 259.001 558.9 249.501 559.1 237.701H550.5C550.4 244.801 544.6 250.501 537.4 250.501Z" fill="#7D95C9"/>
<path d="M548 218.402L544.3 226.102C548.1 228.402 550.6 232.602 550.6 237.302C550.6 237.402 550.6 237.602 550.6 237.702H559.2C559.2 237.602 559.2 237.402 559.2 237.302C559.2 229.202 554.7 222.102 548 218.402Z" fill="#2070B4"/>
<path d="M588.8 215.602C576.8 215.602 567.1 225.302 567.1 237.302C567.1 249.302 576.8 259.002 588.8 259.002C600.8 259.002 610.5 249.302 610.5 237.302C610.5 225.302 600.8 215.602 588.8 215.602ZM588.8 250.502C581.5 250.502 575.7 244.602 575.7 237.402C575.7 230.102 581.6 224.302 588.8 224.302C596.1 224.302 601.9 230.202 601.9 237.402C602 244.602 596.1 250.502 588.8 250.502Z" fill="#FFD255"/>
<path d="M588.8 224.202C592.7 224.202 596.1 225.902 598.5 228.502L604.8 222.702C600.8 218.302 595.1 215.602 588.7 215.602C584.4 215.602 580.4 216.902 577 219.002L582.3 225.802C584.4 224.802 586.5 224.202 588.8 224.202Z" fill="#FFD255"/>
<path d="M610.5 236.501C610.3 231.201 608.2 226.401 604.9 222.701L598.6 228.501C600.5 230.601 601.8 233.401 602 236.501H610.5Z" fill="#7D95C9"/>
<path d="M582.5 225.802L577.2 219.002C571.4 222.702 567.5 229.102 567.2 236.502C567.2 236.802 567.2 237.002 567.2 237.302C567.2 243.002 569.4 248.102 572.9 252.002L579.2 246.202C577 243.902 575.7 240.702 575.7 237.302C575.7 237.002 575.7 236.802 575.7 236.502C576 231.902 578.6 227.902 582.5 225.802Z" fill="#7D95C9"/>
<path d="M610.6 237.302C610.6 237.002 610.6 236.802 610.6 236.502H602C602 236.802 602 237.002 602 237.302C602 240.802 600.6 244.002 598.4 246.302L603.7 253.102C607.9 249.202 610.6 243.502 610.6 237.302Z" fill="#2070B4"/>
<path d="M640.2 215.602C628.2 215.602 618.5 225.302 618.5 237.302C618.5 249.302 628.2 259.002 640.2 259.002C652.2 259.002 661.9 249.302 661.9 237.302C661.9 225.302 652.2 215.602 640.2 215.602ZM640.2 250.502C632.9 250.502 627.1 244.602 627.1 237.402C627.1 230.102 633 224.302 640.2 224.302C647.5 224.302 653.3 230.202 653.3 237.402C653.4 244.602 647.5 250.502 640.2 250.502Z" fill="#FFD255"/>
<path d="M653.4 237.301C653.4 242.001 650.9 246.201 647.2 248.501L653.2 254.801C658.6 250.801 662 244.501 662 237.301C662 230.901 659.2 225.201 654.9 221.201L648.7 227.201C651.6 229.601 653.4 233.201 653.4 237.301Z" fill="#7D95C9"/>
<path d="M533.8 298.902H509.5V302.502H533.8V298.902Z" fill="#FAA701"/>
<path d="M522 306.803H509.5V308.303H522V306.803Z" fill="#A4B0BC"/>
<path d="M532.1 306.803H524.1V308.303H532.1V306.803Z" fill="#A4B0BC"/>
<path d="M527.6 310.703V311.703H526.8V310.703H513.8V312.203H533.1V310.703H527.6Z" fill="#A4B0BC"/>
<path d="M512.8 310.703H509.5V312.203H512.8V310.703Z" fill="#A4B0BC"/>
<path d="M537 310.703H533.9V312.203H537V310.703Z" fill="#A4B0BC"/>
<path d="M534.9 314.602H509.5V316.102H534.9V314.602Z" fill="#A4B0BC"/>
<path d="M528 318.502H509.5V320.002H528V318.502Z" fill="#A4B0BC"/>
<path d="M537 318.502H529.3V320.002H537V318.502Z" fill="#A4B0BC"/>
<path d="M544.5 265.902H529.3V269.502H544.5V265.902Z" fill="#92A1AD"/>
<path d="M544.6 272.402H529.3V273.402H544.6V272.402Z" fill="#FFD255"/>
<path d="M544.6 276.602H529.3V277.602H544.6V276.602Z" fill="#FFD255"/>
<path d="M596.4 265.902H581.2V269.502H596.4V265.902Z" fill="#92A1AD"/>
<path d="M596.5 272.402H581.2V273.402H596.5V272.402Z" fill="#FFD255"/>
<path d="M596.5 276.602H581.2V277.602H596.5V276.602Z" fill="#FFD255"/>
<path d="M648.3 265.902H633.1V269.502H648.3V265.902Z" fill="#92A1AD"/>
<path d="M648.4 272.402H633.1V273.402H648.4V272.402Z" fill="#FFD255"/>
<path d="M648.4 276.602H633.1V277.602H648.4V276.602Z" fill="#FFD255"/>
<path d="M481.9 92.3008H275.4V323.501H481.9V92.3008Z" fill="#FEFEFE"/>
<path d="M366.2 99.9004H313.6V105.9H366.2V99.9004Z" fill="#E8E9EB"/>
<path d="M465.9 99.9004H442.8V105.9H465.9V99.9004Z" fill="#E8E9EB"/>
<path d="M465.9 113.801H442.8V115.801H465.9V113.801Z" fill="#E8E9EB"/>
<path d="M307.3 223.701C298.9 223.701 292 230.501 292 239.001C292 247.401 298.8 254.301 307.3 254.301C315.7 254.301 322.6 247.501 322.6 239.001C322.6 230.601 315.8 223.701 307.3 223.701ZM307.3 248.301C302.2 248.301 298 244.201 298 239.001C298 233.901 302.1 229.701 307.3 229.701C312.4 229.701 316.6 233.801 316.6 239.001C316.6 244.101 312.4 248.301 307.3 248.301Z" fill="#FFD255"/>
<path d="M307.3 232.9C303.9 232.9 301.2 235.6 301.2 239C301.2 242.4 303.9 245.1 307.3 245.1C310.7 245.1 313.4 242.4 313.4 239C313.4 235.7 310.7 232.9 307.3 232.9ZM307.3 244.4C304.3 244.4 301.9 242 301.9 239C301.9 236 304.3 233.6 307.3 233.6C310.3 233.6 312.7 236 312.7 239C312.7 242 310.3 244.4 307.3 244.4Z" fill="#FFD255"/>
<path d="M341.2 223.701C332.8 223.701 325.9 230.501 325.9 239.001C325.9 247.401 332.7 254.301 341.2 254.301C349.6 254.301 356.5 247.501 356.5 239.001C356.5 230.601 349.6 223.701 341.2 223.701ZM341.2 248.301C336.1 248.301 331.9 244.201 331.9 239.001C331.9 233.901 336 229.701 341.2 229.701C346.3 229.701 350.5 233.801 350.5 239.001C350.5 244.101 346.3 248.301 341.2 248.301Z" fill="#FFD255"/>
<path d="M341.2 232.9C337.8 232.9 335.1 235.6 335.1 239C335.1 242.4 337.8 245.1 341.2 245.1C344.6 245.1 347.3 242.4 347.3 239C347.3 235.7 344.6 232.9 341.2 232.9ZM341.2 244.4C338.2 244.4 335.8 242 335.8 239C335.8 236 338.2 233.6 341.2 233.6C344.2 233.6 346.6 236 346.6 239C346.6 242 344.2 244.4 341.2 244.4Z" fill="#FFD255"/>
<path d="M296.8 286.1L296.4 285.2L348.7 263.9L360.1 268.9L374.1 248.7L383.5 254.6L393.7 240L394.5 240.6L383.8 256L374.4 250.1L360.4 270.2L348.7 265L296.8 286.1Z" fill="#FFD255"/>
<path d="M321.7 274.699H312.5V311.399H321.7V274.699Z" fill="#7D95C9"/>
<path d="M336.5 280.4H327.3V311.4H336.5V280.4Z" fill="#7D95C9"/>
<path d="M351.4 273.699H342.2V311.299H351.4V273.699Z" fill="#7D95C9"/>
<path d="M366.2 284.1H357V311.3H366.2V284.1Z" fill="#7D95C9"/>
<path d="M381.1 258.5H371.9V311.3H381.1V258.5Z" fill="#7D95C9"/>
<path d="M396 253.5H386.8V311.4H396V253.5Z" fill="#7D95C9"/>
<path d="M327.9 124.701H316V215.601H327.9V124.701Z" fill="#E8E9EB"/>
<path d="M345.2 124.701H333.3V215.601H345.2V124.701Z" fill="#E8E9EB"/>
<path d="M362.6 124.701H350.7V215.601H362.6V124.701Z" fill="#E8E9EB"/>
<path d="M379.9 124.701H368V215.601H379.9V124.701Z" fill="#E8E9EB"/>
<path d="M397.3 124.701H385.4V215.601H397.3V124.701Z" fill="#E8E9EB"/>
<path d="M414.6 124.701H402.7V215.601H414.6V124.701Z" fill="#E8E9EB"/>
<path d="M432 124.701H420.1V215.601H432V124.701Z" fill="#E8E9EB"/>
<path d="M449.4 124.701H437.5V215.601H449.4V124.701Z" fill="#E8E9EB"/>
<path d="M466.7 124.701H454.8V215.601H466.7V124.701Z" fill="#E8E9EB"/>
<path d="M321.1 130.801H319.6V215.001H321.1V130.801Z" fill="#FEFEFE"/>
<path d="M338.6 130.801H337.1V215.001H338.6V130.801Z" fill="#FEFEFE"/>
<path d="M356.1 130.801H354.6V215.001H356.1V130.801Z" fill="#FEFEFE"/>
<path d="M373.6 130.801H372.1V215.001H373.6V130.801Z" fill="#FEFEFE"/>
<path d="M391.1 130.801H389.6V215.001H391.1V130.801Z" fill="#FEFEFE"/>
<path d="M408.6 130.801H407.1V215.001H408.6V130.801Z" fill="#FEFEFE"/>
<path d="M426.1 130.801H424.6V215.001H426.1V130.801Z" fill="#FEFEFE"/>
<path d="M443.6 130.801H442.1V215.001H443.6V130.801Z" fill="#FEFEFE"/>
<path d="M461.1 130.801H459.6V215.001H461.1V130.801Z" fill="#FEFEFE"/>
<path d="M323.1 173H317.6V215H323.1V173Z" fill="#515AE4"/>
<path d="M340.6 173H335.1V215H340.6V173Z" fill="#515AE4"/>
<path d="M358.1 186.701H352.6V215.101H358.1V186.701Z" fill="#515AE4"/>
<path d="M375.6 158.301H370.1V215.001H375.6V158.301Z" fill="#515AE4"/>
<path d="M375.6 158.301H370.1V170.201H375.6V158.301Z" fill="#FFD255"/>
<path d="M393.1 149.602H387.6V215.102H393.1V149.602Z" fill="#515AE4"/>
<path d="M410.6 173H405.1V215H410.6V173Z" fill="#515AE4"/>
<path d="M428.1 155.801H422.6V215.001H428.1V155.801Z" fill="#515AE4"/>
<path d="M428.1 155.801H422.6V159.801H428.1V155.801Z" fill="#FFD255"/>
<path d="M445.6 162.301H440.1V215.001H445.6V162.301Z" fill="#515AE4"/>
<path d="M463.1 173H457.6V215H463.1V173Z" fill="#515AE4"/>
<path d="M310.1 211.4H298.9V214.7H310.1V211.4Z" fill="#E8E9EB"/>
<path d="M310.1 198H298.9V201.3H310.1V198Z" fill="#E8E9EB"/>
<path d="M310.1 184.602H298.9V187.902H310.1V184.602Z" fill="#E8E9EB"/>
<path d="M310.1 171.102H298.9V174.402H310.1V171.102Z" fill="#E8E9EB"/>
<path d="M310.1 157.701H298.9V161.001H310.1V157.701Z" fill="#E8E9EB"/>
<path d="M310.1 144.201H298.9V147.501H310.1V144.201Z" fill="#E8E9EB"/>
<path d="M310.1 130.801H298.9V134.101H310.1V130.801Z" fill="#E8E9EB"/>
<path d="M327.9 120.4H316V121.7H327.9V120.4Z" fill="#A4B0BC"/>
<path d="M345.2 120.4H333.3V121.7H345.2V120.4Z" fill="#A4B0BC"/>
<path d="M362.6 120.4H350.7V121.7H362.6V120.4Z" fill="#A4B0BC"/>
<path d="M379.9 120.4H368V121.7H379.9V120.4Z" fill="#A4B0BC"/>
<path d="M397.3 120.4H385.4V121.7H397.3V120.4Z" fill="#A4B0BC"/>
<path d="M414.6 120.4H402.7V121.7H414.6V120.4Z" fill="#A4B0BC"/>
<path d="M432 120.4H420.1V121.7H432V120.4Z" fill="#A4B0BC"/>
<path d="M449.4 120.4H437.5V121.7H449.4V120.4Z" fill="#A4B0BC"/>
<path d="M466.7 120.4H454.8V121.7H466.7V120.4Z" fill="#A4B0BC"/>
<path d="M256.9 158.4H62.2V275.6H256.9V158.4Z" fill="white"/>
<path d="M225.4 228.899C241.471 228.899 254.5 215.871 254.5 199.799C254.5 183.728 241.471 170.699 225.4 170.699C209.329 170.699 196.3 183.728 196.3 199.799C196.3 215.871 209.329 228.899 225.4 228.899Z" fill="#FAA701"/>
<path d="M225.2 170.6C217.1 170.6 209.8 174 204.5 179.4L223.9 200.2L237.5 173.3C233.8 171.6 229.6 170.6 225.2 170.6Z" fill="#FFD255"/>
<path d="M250.4 184.899C247.4 179.899 242.9 175.799 237.5 173.299L223.9 200.199L224.2 200.499L250.4 184.899Z" fill="#352F6C"/>
<path d="M204.5 179.4C199.3 184.7 196.2 191.9 196.2 199.9C196.2 205.3 197.7 210.4 200.3 214.7L223.5 200.8L223.8 200.1L204.5 179.4Z" fill="#7D95C9"/>
<path d="M223.9 200.199L223.6 200.899L224.2 200.499L223.9 200.199Z" fill="#FAA701"/>
<path d="M244.2 222L224.2 200.5L223.6 200.9L211.3 225.3C215.5 227.6 220.4 229 225.5 229C232.6 228.9 239.2 226.3 244.2 222Z" fill="#352F6C"/>
<path d="M200.4 214.699C203 219.099 206.8 222.699 211.3 225.199L223.6 200.799L200.4 214.699Z" fill="#E8E9EB"/>
<path d="M250.4 184.9L224.2 200.5L244.2 222C250.5 216.6 254.5 208.6 254.5 199.7C254.5 194.3 253 189.2 250.4 184.9Z" fill="#7D95C9"/>
<path d="M225.4 220.1C236.611 220.1 245.7 211.011 245.7 199.8C245.7 188.589 236.611 179.5 225.4 179.5C214.189 179.5 205.1 188.589 205.1 199.8C205.1 211.011 214.189 220.1 225.4 220.1Z" fill="white"/>
<path d="M225.4 217.399C215.7 217.399 207.8 209.499 207.8 199.799C207.8 190.099 215.7 182.199 225.4 182.199C235.1 182.199 243 190.099 243 199.799C243 209.499 235.1 217.399 225.4 217.399ZM225.4 183.099C216.2 183.099 208.8 190.599 208.8 199.699C208.8 208.799 216.3 216.299 225.4 216.299C234.5 216.299 242 208.799 242 199.699C242 190.599 234.5 183.099 225.4 183.099Z" fill="#FAA701"/>
<path d="M233.4 235.299H224.7V237.299H233.4V235.299Z" fill="#FAA701"/>
<path d="M237.5 240.6H224.7V242.6H237.5V240.6Z" fill="#A4B0BC"/>
<path d="M245.5 240.6H239.2V242.6H245.5V240.6Z" fill="#A4B0BC"/>
<path d="M250 240.6H246V242.6H250V240.6Z" fill="#A4B0BC"/>
<path d="M230.8 245.898H224.7V247.898H230.8V245.898Z" fill="#A4B0BC"/>
<path d="M248.2 245.898H232.5V247.898H248.2V245.898Z" fill="#A4B0BC"/>
<path d="M250.1 251.199H242.9V253.199H250.1V251.199Z" fill="#A4B0BC"/>
<path d="M242.2 251.199H224.7V253.199H242.2V251.199Z" fill="#A4B0BC"/>
<path d="M235.7 256.6H224.7V258.6H235.7V256.6Z" fill="#A4B0BC"/>
<path d="M242.1 256.6H237.4V258.6H242.1V256.6Z" fill="#A4B0BC"/>
<path d="M245.6 256.6H242.9V258.6H245.6V256.6Z" fill="#A4B0BC"/>
<path d="M106.8 252.1H84.6V253.5H106.8V252.1Z" fill="#FAA701"/>
<path d="M111.3 255.699H84.6V257.099H111.3V255.699Z" fill="#A4B0BC"/>
<path d="M111.3 259.4H94.8V260.8H111.3V259.4Z" fill="#A4B0BC"/>
<path d="M92.4 259.4H84.6V260.8H92.4V259.4Z" fill="#A4B0BC"/>
<path d="M111.3 263H84.6V264.4H111.3V263Z" fill="#A4B0BC"/>
<path d="M111.3 266.6H84.6V268H111.3V266.6Z" fill="#A4B0BC"/>
<path d="M85.1 177.5H84.1V242.7H85.1V177.5Z" fill="#022A44"/>
<path d="M103.7 177.5H102.7V242.7H103.7V177.5Z" fill="#022A44"/>
<path d="M122.2 177.5H121.2V242.7H122.2V177.5Z" fill="#022A44"/>
<path d="M140.7 177.5H139.7V242.7H140.7V177.5Z" fill="#022A44"/>
<path d="M159.3 177.5H158.3V242.7H159.3V177.5Z" fill="#022A44"/>
<path d="M177.8 177.5H176.8V242.7H177.8V177.5Z" fill="#022A44"/>
<path d="M87.6 203.4H81.6V242.7H87.6V203.4Z" fill="#A4B0BC"/>
<path d="M106.3 216.9H100.3V242.7H106.3V216.9Z" fill="#A4B0BC"/>
<path d="M124.7 205.6H118.7V242.7H124.7V205.6Z" fill="#A4B0BC"/>
<path d="M143.2 191.4H137.2V242.7H143.2V191.4Z" fill="#A4B0BC"/>
<path d="M161.8 213.1H155.8V242.7H161.8V213.1Z" fill="#A4B0BC"/>
<path d="M180.9 243.9H71.9V244.7H180.9V243.9Z" fill="#E8E9EB"/>
<path d="M183.7 191.699L177.3 180.699L170.9 191.699H174.3V242.699H180.3V191.699H183.7Z" fill="#FFD255"/>
<path d="M79.7 239.499C79.7 239.899 79.4 240.299 78.9 240.299H72.6C72.2 240.299 71.8 239.999 71.8 239.499C71.8 239.099 72.1 238.699 72.6 238.699H78.9C79.4 238.799 79.7 239.099 79.7 239.499Z" fill="#E8E9EB"/>
<path d="M79.7 228.7C79.7 229.1 79.4 229.5 78.9 229.5H72.6C72.2 229.5 71.8 229.2 71.8 228.7C71.8 228.3 72.1 227.9 72.6 227.9H78.9C79.4 227.9 79.7 228.2 79.7 228.7Z" fill="#E8E9EB"/>
<path d="M79.7 217.8C79.7 218.2 79.4 218.6 78.9 218.6H72.6C72.2 218.6 71.8 218.3 71.8 217.8C71.8 217.4 72.1 217 72.6 217H78.9C79.4 217 79.7 217.4 79.7 217.8Z" fill="#E8E9EB"/>
<path d="M79.7 206.9C79.7 207.3 79.4 207.7 78.9 207.7H72.6C72.2 207.7 71.8 207.4 71.8 206.9C71.8 206.5 72.1 206.1 72.6 206.1H78.9C79.4 206.2 79.7 206.5 79.7 206.9Z" fill="#E8E9EB"/>
<path d="M79.7 196.101C79.7 196.501 79.4 196.901 78.9 196.901H72.6C72.2 196.901 71.8 196.601 71.8 196.101C71.8 195.701 72.1 195.301 72.6 195.301H78.9C79.4 195.301 79.7 195.601 79.7 196.101Z" fill="#E8E9EB"/>
<path d="M79.7 185.2C79.7 185.6 79.4 186 78.9 186H72.6C72.2 186 71.8 185.7 71.8 185.2C71.8 184.8 72.1 184.4 72.6 184.4H78.9C79.4 184.4 79.7 184.8 79.7 185.2Z" fill="#E8E9EB"/>
<path d="M79.7 174.3C79.7 174.7 79.4 175.1 78.9 175.1H72.6C72.2 175.1 71.8 174.8 71.8 174.3C71.8 173.9 72.1 173.5 72.6 173.5H78.9C79.4 173.6 79.7 173.9 79.7 174.3Z" fill="#E8E9EB"/>
<path d="M619.8 105H498.1V185.4H619.8V105Z" fill="white"/>
<path d="M520.3 142.398H509.8V171.798H520.3V142.398Z" fill="#7D95C9"/>
<path d="M533.5 151.299H523V171.799H533.5V151.299Z" fill="#7D95C9"/>
<path d="M546.7 130.799H536.2V171.799H546.7V130.799Z" fill="#7D95C9"/>
<path d="M559.8 142.398H549.3V171.798H559.8V142.398Z" fill="#7D95C9"/>
<path d="M573 130.799H562.5V171.799H573V130.799Z" fill="#7D95C9"/>
<path d="M586.2 134.098H575.7V171.798H586.2V134.098Z" fill="#7D95C9"/>
<path d="M599.3 125.898H588.8V171.798H599.3V125.898Z" fill="#7D95C9"/>
<path d="M520.3 168.799H509.8V171.699H520.3V168.799Z" fill="#2070B4"/>
<path d="M533.5 159.998H523V171.798H533.5V159.998Z" fill="#2070B4"/>
<path d="M546.7 165.898H536.2V171.798H546.7V165.898Z" fill="#2070B4"/>
<path d="M559.8 159.998H549.3V171.798H559.8V159.998Z" fill="#2070B4"/>
<path d="M573 152.898H562.5V171.798H573V152.898Z" fill="#2070B4"/>
<path d="M586.2 159.998H575.7V171.798H586.2V159.998Z" fill="#2070B4"/>
<path d="M599.3 142.398H588.8V171.798H599.3V142.398Z" fill="#2070B4"/>
<path d="M612.1 108.699H595.6V111.099H612.1V108.699Z" fill="#FAA701"/>
<path d="M604.1 114H595.6V115H604.1V114Z" fill="#A4B0BC"/>
<path d="M610.9 114H605.5V115H610.9V114Z" fill="#A4B0BC"/>
<path d="M607.9 116.699V117.299H607.3V116.699H598.5V117.699H611.6V116.699H607.9Z" fill="#A4B0BC"/>
<path d="M597.8 116.699H595.6V117.699H597.8V116.699Z" fill="#A4B0BC"/>
<path d="M614.2 116.699H612.1V117.699H614.2V116.699Z" fill="#A4B0BC"/>
<path d="M518.4 124.199H512C511.4 124.199 511 123.699 511 123.199C511 122.599 511.5 122.199 512 122.199H518.4C519 122.199 519.4 122.699 519.4 123.199C519.4 123.699 518.9 124.199 518.4 124.199Z" fill="#FAA701"/>
<path d="M531.4 124.199H525C524.4 124.199 524 123.699 524 123.199C524 122.599 524.5 122.199 525 122.199H531.4C532 122.199 532.4 122.699 532.4 123.199C532.5 123.699 532 124.199 531.4 124.199Z" fill="#FAA701"/>
<path d="M544.6 124.199H538.2C537.6 124.199 537.2 123.699 537.2 123.199C537.2 122.599 537.7 122.199 538.2 122.199H544.6C545.2 122.199 545.6 122.699 545.6 123.199C545.6 123.699 545.2 124.199 544.6 124.199Z" fill="#FAA701"/>
<path d="M557.8 124.199H551.4C550.8 124.199 550.4 123.699 550.4 123.199C550.4 122.599 550.9 122.199 551.4 122.199H557.8C558.4 122.199 558.8 122.699 558.8 123.199C558.8 123.699 558.3 124.199 557.8 124.199Z" fill="#FAA701"/>
<path d="M570.9 124.199H564.5C563.9 124.199 563.5 123.699 563.5 123.199C563.5 122.599 564 122.199 564.5 122.199H570.9C571.5 122.199 571.9 122.699 571.9 123.199C572 123.699 571.5 124.199 570.9 124.199Z" fill="#FAA701"/>
<path d="M584.1 124.199H577.7C577.1 124.199 576.7 123.699 576.7 123.199C576.7 122.599 577.2 122.199 577.7 122.199H584.1C584.7 122.199 585.1 122.699 585.1 123.199C585.1 123.699 584.7 124.199 584.1 124.199Z" fill="#FAA701"/>
<path d="M597 124.199H590.6C590 124.199 589.6 123.699 589.6 123.199C589.6 122.599 590.1 122.199 590.6 122.199H597C597.6 122.199 598 122.699 598 123.199C598.1 123.699 597.6 124.199 597 124.199Z" fill="#FAA701"/>
<path d="M446.152 276.27C445.752 278.87 446.452 281.57 447.952 283.57C448.952 288.37 452.852 292.47 457.452 293.47C461.752 291.57 464.752 286.67 464.452 281.77C464.152 276.87 460.752 272.37 456.252 270.97C453.752 270.27 450.752 270.57 448.952 272.47L446.152 276.27Z" fill="#E7A988"/>
<path d="M453.352 270.67C454.352 270.67 455.352 270.77 456.252 271.07C460.752 272.37 464.252 276.97 464.452 281.87C464.752 286.77 461.752 291.67 457.452 293.57C457.052 293.47 456.552 293.37 456.152 293.17C457.752 285.37 457.852 276.97 453.352 270.67Z" fill="#D88568"/>
<path d="M474.452 296.67C474.952 296.07 474.452 295.27 474.052 294.67C470.452 289.87 467.952 284.67 467.052 278.77C463.452 280.27 459.852 280.97 455.952 281.57C457.552 287.97 458.752 294.57 459.352 301.17C464.152 299.77 468.852 298.47 473.652 297.07C473.952 296.97 474.252 296.87 474.452 296.67Z" fill="#E7A988"/>
<path d="M442.952 275.77C440.852 275.07 439.152 273.17 438.752 270.97C440.152 271.77 441.852 271.97 443.452 271.57C442.952 271.57 442.552 271.37 442.252 271.07C444.152 270.97 445.852 269.97 447.352 268.87C448.852 267.77 450.252 266.47 451.752 265.47C453.352 264.47 455.252 263.77 457.052 264.07C457.252 264.07 457.452 264.17 457.752 264.27C458.852 264.17 459.952 264.17 460.952 264.47C464.552 265.37 467.052 268.77 467.852 272.37C468.652 275.97 469.052 280.17 468.052 283.77C464.452 285.47 459.052 285.37 455.252 284.27C454.752 284.07 454.152 283.87 453.652 283.67C453.452 282.97 453.352 282.17 453.252 281.47C453.152 280.57 452.852 279.77 452.252 279.07C451.652 278.47 450.652 278.17 449.852 278.67C449.352 278.97 449.152 279.57 449.152 280.17C449.152 280.47 449.152 280.67 449.252 280.97C448.452 280.37 447.752 279.57 447.152 278.87C444.552 279.07 441.852 277.77 440.452 275.57C441.252 275.77 442.152 275.77 442.952 275.77Z" fill="#352F6C"/>
<path d="M450.852 281.569C450.752 281.369 450.552 281.269 450.352 281.169C449.952 280.869 449.852 280.269 449.952 279.869C450.152 279.369 450.652 279.169 451.152 279.269C451.552 279.469 451.852 279.969 451.852 280.469C451.852 280.969 451.652 281.469 451.552 281.969C451.752 281.769 452.052 281.769 452.252 281.969C452.452 282.169 452.552 282.369 452.452 282.669C452.352 282.869 452.252 282.969 452.152 283.069C452.052 283.169 451.952 283.369 452.052 283.569C452.052 283.669 452.152 283.769 452.252 283.869C452.352 283.969 452.252 284.069 452.152 284.169C452.052 284.169 452.052 284.169 451.952 284.069C451.452 283.769 451.152 283.169 451.052 282.669C451.052 282.169 451.052 281.769 450.852 281.569Z" fill="#D88568"/>
<path d="M452.652 269.17C452.252 269.47 452.252 270.07 451.952 270.47C451.552 270.87 450.852 270.77 450.252 270.77C449.152 270.77 448.152 271.37 447.352 272.07C446.552 272.77 446.052 273.77 445.452 274.67C445.052 274.07 444.652 273.47 444.352 272.87C448.152 270.67 452.052 268.37 455.852 266.17C455.652 267.07 455.452 268.07 455.252 268.97C455.252 269.17 455.152 269.37 455.052 269.47C454.752 269.77 454.252 269.67 453.852 269.37C453.552 269.27 453.052 268.97 452.652 269.17Z" fill="#2070B4"/>
<path d="M496.152 473.971C497.052 473.471 498.452 473.271 499.452 473.171C500.452 473.071 501.352 472.771 502.252 472.271C503.152 471.771 503.852 470.771 503.552 469.771C506.152 469.571 508.152 468.671 510.452 467.471C510.452 469.371 511.652 471.071 512.252 472.871C512.352 473.271 512.352 473.871 512.352 474.371C512.552 475.571 512.552 476.871 512.152 478.071C509.952 479.271 507.452 479.871 504.952 479.471C504.852 479.071 504.752 478.671 504.652 478.271C503.352 477.971 502.352 477.771 501.152 477.971C499.852 478.171 499.352 478.471 498.552 478.371C497.852 478.271 497.452 477.971 496.752 477.671C496.052 477.371 495.252 476.571 495.052 475.871C494.752 474.871 495.252 474.471 496.152 473.971Z" fill="#022A44"/>
<path d="M504.052 471.37C505.952 470.47 507.952 469.57 510.052 469.07C510.352 469.47 510.552 469.87 510.752 470.37C510.852 470.87 510.852 471.37 510.552 471.77C510.252 472.17 509.852 472.37 509.352 472.47C507.552 472.97 505.552 472.57 504.052 471.37Z" fill="#E8E9EB"/>
<path d="M507.452 447.97C508.452 450.37 509.752 459.17 510.952 462.37C511.952 464.77 512.952 466.07 511.452 468.27C509.952 470.47 505.352 472.77 502.952 471.77C496.252 454.57 488.352 437.77 482.152 420.37C475.952 402.97 471.352 384.67 471.752 366.17C481.752 362.97 491.752 359.87 501.752 356.67C511.152 379.07 504.952 385.77 504.052 402.17C503.152 418.47 501.452 432.67 507.452 447.97Z" fill="#2070B4"/>
<path d="M471.752 366.17C479.052 363.87 486.452 361.47 493.752 359.17C503.752 381.47 494.552 406.47 496.452 429.57C497.752 444.37 501.352 458.27 506.452 471.67C505.152 472.07 503.852 472.17 502.852 471.77C496.152 454.57 488.252 437.77 482.052 420.37C475.952 402.87 471.352 384.57 471.752 366.17Z" fill="#22619C"/>
<path d="M494.552 358.971C486.952 361.371 479.352 363.771 471.852 366.171C471.452 384.671 476.052 402.971 482.252 420.371C486.352 431.771 491.052 442.771 495.752 453.971C494.952 449.871 494.552 445.671 493.952 441.771C487.852 413.171 509.152 385.971 494.552 358.971Z" fill="#022A44"/>
<path d="M465.352 484.271C465.852 483.171 467.052 482.571 468.252 482.371C469.452 482.171 470.652 482.371 471.852 482.371C476.652 482.371 481.252 479.971 485.952 480.671C485.952 482.671 486.252 484.771 486.052 486.771C486.052 487.171 485.952 487.471 485.852 487.871C485.852 488.871 485.652 489.971 485.452 490.971C485.352 491.471 485.252 492.071 484.952 492.471C484.552 493.071 483.852 493.271 483.152 493.471C480.552 494.171 477.752 493.671 475.552 492.171C475.252 491.971 475.052 491.771 474.852 491.471C474.752 491.271 474.752 491.071 474.752 490.771C474.052 490.471 473.352 490.171 472.552 489.971C470.852 489.471 470.152 489.271 468.552 488.471C466.952 487.771 464.652 485.971 465.352 484.271Z" fill="#022A44"/>
<path d="M474.452 483.471C474.052 483.371 473.652 483.671 473.552 484.071C473.452 484.471 473.652 484.871 473.952 485.171C474.252 485.471 474.652 485.571 475.052 485.671C476.752 486.171 478.552 486.271 480.352 486.271C481.452 486.271 482.552 486.171 483.552 485.771C484.552 485.371 485.452 484.571 485.752 483.571C486.052 482.571 485.452 481.271 484.452 480.971L474.452 483.471Z" fill="#E8E9EB"/>
<path d="M499.952 360.77L499.352 354.07C490.052 358.27 479.452 362.87 469.352 364.47C469.352 386.57 467.252 405.27 467.852 425.57C468.452 444.37 471.752 464.57 474.452 484.37C478.952 485.47 482.052 485.77 486.152 482.77C486.352 466.07 487.352 453.07 486.352 445.67C485.352 438.37 488.852 420.17 491.052 413.07C498.052 390.57 504.552 387.17 499.952 360.77Z" fill="#2070B4"/>
<path d="M479.552 422.57C481.352 402.37 490.852 380.47 485.352 359.97C490.152 358.17 494.952 356.07 499.352 354.07L499.952 360.77C504.552 387.17 498.052 390.57 491.152 412.97C488.952 420.17 485.452 438.27 486.452 445.57C487.452 452.97 486.452 465.97 486.252 482.67C484.352 484.07 482.652 484.77 480.852 484.97C479.152 464.27 477.852 443.47 479.552 422.57Z" fill="#22619C"/>
<path d="M476.852 483.671C469.352 446.471 471.952 407.571 475.452 371.071L474.652 370.971C471.852 408.071 468.952 446.371 476.252 483.471C476.552 483.571 476.552 483.671 476.852 483.671Z" fill="#27B2E4"/>
<path d="M481.152 294.77C484.552 294.17 487.952 296.77 489.252 299.97C490.552 303.17 490.252 306.87 489.552 310.27C487.752 319.77 483.652 328.67 478.152 336.67C475.952 339.77 473.552 342.87 470.652 345.27C463.152 351.37 453.152 352.97 443.652 354.37C442.752 352.27 441.752 350.27 440.852 348.17C451.652 342.37 460.552 333.17 465.952 322.27C469.752 314.67 471.752 306.27 473.852 298.07L481.152 294.77Z" fill="#022A44"/>
<path d="M429.052 364.369H448.152L440.352 332.369H421.152L429.052 364.369Z" fill="#022A44"/>
<path d="M429.852 359.369H446.052L439.452 332.369H423.252L429.852 359.369Z" fill="white"/>
<path d="M439.452 332.369L445.552 357.269C440.352 351.169 434.452 346.669 426.752 346.469L423.252 332.369H439.452Z" fill="#C7D3DD"/>
<path d="M479.752 294.37C477.552 293.07 475.852 291.07 474.852 288.67C467.052 289.17 459.652 293.87 456.052 300.77C459.252 299.57 462.452 298.37 465.652 297.17C469.652 295.67 473.852 294.07 478.152 294.17L479.752 294.37Z" fill="#352F6C"/>
<path d="M465.752 378.27C465.452 375.07 466.752 368.17 466.252 357.47C465.952 348.87 465.652 352.07 465.452 349.47C464.952 342.97 462.852 340.87 459.652 335.17C457.252 330.87 453.452 323.57 450.952 319.37C448.452 315.17 447.052 309.57 449.652 305.27C451.252 302.67 453.952 300.97 456.652 299.57C460.652 297.47 464.852 295.77 469.052 294.37C473.852 292.77 479.452 291.67 483.652 294.57C486.452 296.47 489.752 300.17 491.452 303.07C500.952 318.87 499.652 324.67 504.552 351.97C504.952 354.17 512.252 369.77 513.352 374.67C510.952 375.57 508.552 376.37 506.052 376.97C504.952 370.37 503.152 364.07 500.652 358.27C500.652 365.67 502.752 370.77 502.352 377.87C490.652 380.37 478.152 379.87 465.752 378.27Z" fill="#352F6C"/>
<path d="M477.552 294.87C472.152 295.27 466.852 296.37 461.752 298.07C466.252 295.07 471.552 293.37 476.952 293.27C477.352 293.27 477.752 293.27 478.152 293.47C478.552 293.67 478.752 294.17 478.452 294.57C478.252 294.77 477.852 294.87 477.552 294.87Z" fill="#292666"/>
<path d="M480.352 293.869C483.552 294.869 486.452 297.169 488.052 300.169C485.452 298.069 482.852 295.969 480.352 293.869Z" fill="#22619C"/>
<path d="M454.552 303.971C455.952 305.971 457.452 307.871 458.852 309.871C458.352 307.371 456.752 305.171 454.552 303.971Z" fill="#22619C"/>
<path d="M472.152 378.97C470.052 378.77 467.852 378.57 465.752 378.27C465.452 375.07 466.752 368.17 466.252 357.47C465.952 348.87 465.652 352.07 465.452 349.47C464.952 342.97 462.852 340.87 459.652 335.17C457.252 330.87 453.452 323.57 450.952 319.37C448.552 315.47 447.252 310.37 449.152 306.27C475.152 320.17 474.852 350.77 472.152 378.97Z" fill="#292666"/>
<path d="M437.652 307.571C436.152 306.771 434.552 306.071 432.852 305.671C433.652 303.971 434.052 302.171 433.952 300.271C433.852 299.171 433.752 297.971 434.452 297.271C434.852 296.871 435.452 296.671 436.052 296.571C437.352 296.271 438.752 295.871 440.052 295.571C441.352 295.271 441.752 295.671 442.452 294.471C442.752 293.971 443.952 292.671 444.252 292.271C444.552 291.871 445.452 290.071 446.352 290.871C446.752 291.271 445.852 292.971 445.652 293.471C445.052 294.771 444.552 296.071 443.952 297.371C443.552 298.371 443.252 299.071 444.052 299.871C444.352 300.171 445.052 300.171 445.352 300.371C445.652 300.571 445.552 301.771 445.452 302.171C445.352 302.371 445.152 302.571 444.952 302.671C442.552 304.271 440.052 305.871 437.652 307.571Z" fill="#E7A988"/>
<path d="M431.452 305.87C431.952 304.87 432.452 303.97 433.052 302.97C435.352 302.87 437.552 303.77 439.252 305.27C439.552 305.47 439.752 305.87 439.752 306.17C439.752 306.37 439.652 306.57 439.552 306.67C438.852 307.97 438.252 309.27 437.552 310.57C435.652 308.57 433.852 307.47 431.052 306.97L431.452 305.87Z" fill="#98A9D8"/>
<path d="M423.152 344.77C421.352 344.17 420.252 342.47 419.652 340.67C418.552 337.37 418.952 333.67 420.052 330.27C421.152 326.97 422.852 323.77 424.252 320.57C426.152 316.17 427.352 311.47 429.552 307.17C430.052 306.27 430.552 305.27 431.452 304.77C432.652 304.27 434.152 304.87 435.552 305.07C436.552 305.17 437.452 306.27 438.452 306.67C439.152 306.97 439.452 307.77 439.252 308.47C437.652 314.77 436.352 320.77 435.652 327.27C435.252 330.67 434.952 334.17 433.752 337.37C432.552 340.57 430.152 343.57 426.852 344.67C425.652 345.07 424.352 345.27 423.152 344.77Z" fill="#352F6C"/>
<path d="M438.452 306.77C439.152 307.07 439.452 307.87 439.252 308.57C437.652 314.87 436.352 320.87 435.652 327.37C435.252 330.77 434.952 334.27 433.752 337.47C432.552 340.67 430.152 343.67 426.852 344.77C426.752 344.77 426.752 344.77 426.652 344.77C427.452 331.27 431.252 317.87 436.552 305.57C437.252 305.97 437.852 306.57 438.452 306.77Z" fill="#292666"/>
<path d="M460.052 316.07C459.352 311.47 456.752 307.27 452.952 304.57C452.152 303.97 451.252 303.47 450.252 303.67C449.452 303.77 448.852 304.37 448.252 304.87C441.052 311.77 435.652 320.37 428.452 327.17C426.452 329.07 424.352 330.77 422.752 332.97C421.152 335.17 419.952 337.87 420.252 340.57C420.552 343.27 422.552 345.87 425.252 346.27C427.352 346.47 429.352 345.47 431.052 344.27C434.152 342.17 436.852 339.57 439.652 337.07C444.252 333.07 449.152 329.57 454.352 326.47C455.952 325.47 457.652 324.57 458.752 322.97C460.252 321.07 460.452 318.47 460.052 316.07Z" fill="#352F6C"/>
<path d="M426.752 328.771C423.852 331.271 422.152 335.071 422.252 338.871C421.652 336.971 421.752 334.771 422.552 332.971C423.352 331.071 424.852 329.571 426.752 328.771Z" fill="#22619C"/>
<path d="M427.552 343.571C435.952 330.971 450.752 326.171 459.952 315.371C459.952 315.571 460.052 315.871 460.052 316.071C460.452 318.471 460.252 321.071 458.852 323.071C457.752 324.571 456.052 325.571 454.452 326.571C449.252 329.671 444.352 333.171 439.752 337.171C436.952 339.571 434.252 342.171 431.152 344.371C429.552 345.471 427.752 346.471 425.952 346.371C426.452 345.371 426.952 344.471 427.552 343.571Z" fill="#292666"/>
<path d="M500.152 354.57C499.352 336.47 494.252 318.47 485.352 302.67C494.752 318.17 499.952 336.37 500.152 354.57Z" fill="#292666"/>
<path d="M200.025 470.7C198.625 473.7 200.725 476.3 200.725 479C203.625 479.2 205.925 479.1 208.825 479.2C208.825 478.6 208.825 477.9 208.825 477.3C214.325 479.7 220.625 480.2 226.425 478.6C226.625 477.2 225.525 475.9 224.225 475.3C222.925 474.7 221.525 474.7 220.125 474.5C218.025 474.2 215.925 473.6 214.125 472.5C212.325 471.3 210.925 469.5 210.425 467.4C207.725 467.7 205.125 467.9 202.425 468.2C201.725 468.3 200.925 468.4 200.525 468.9C200.025 469.3 200.225 470.1 200.025 470.7Z" fill="#022A44"/>
<path d="M202.925 472C205.025 472.6 207.325 472.8 209.425 472.5C209.725 472.5 210.125 472.4 210.325 472.1C210.425 471.9 210.425 471.6 210.325 471.3C210.125 470.4 210.025 469.5 209.825 468.6C206.825 469.1 203.825 469.7 200.825 470.6C201.225 471.4 202.125 471.8 202.925 472Z" fill="white"/>
<path d="M169.625 334C169.425 343.6 171.925 352.8 173.725 361.5C181.625 399 190.025 434.4 198.725 472.5C201.925 471.4 208.525 470.2 211.725 469.1C209.225 423.1 203.825 379.3 196.125 334H169.625Z" fill="#352F6C"/>
<path d="M169.625 334C169.425 343.6 171.925 352.8 173.725 361.5C181.625 399 190.025 434.4 198.725 472.5C200.425 471.9 203.025 471.3 205.625 470.7C198.625 423.9 185.625 378.9 170.525 334H169.625Z" fill="#292666"/>
<path d="M201.425 471.5C200.025 464.7 198.725 458.8 197.425 452.4C191.125 421.1 185.825 394.3 177.925 361.9L178.225 361.6C186.125 394 191.625 421 197.925 452.3C199.225 458.8 200.325 464.6 201.725 471.4L201.425 471.5Z" fill="#7D95C9"/>
<path d="M159.525 484.8C160.525 484.1 160.525 482.7 160.525 481.5C160.425 479.8 160.325 478.1 160.225 476.5C160.225 476 160.125 475.4 159.825 475C159.425 474.5 158.625 474.4 157.925 474.4C154.725 474.4 151.425 474.4 148.225 474.5C146.525 478.8 144.825 483.2 143.125 487.5C142.825 488.4 142.425 489.4 143.025 490.1C143.425 490.6 145.025 491.2 145.725 491.3C148.625 491.5 148.425 491.4 151.325 491.4C152.325 491.4 155.625 490 156.125 489.1C156.925 487.9 155.925 486.9 156.925 485.9C157.625 485.1 158.725 485.3 159.525 484.8Z" fill="#022A44"/>
<path d="M150.325 479.101C151.225 479.201 152.025 479.201 152.925 479.301C154.125 479.401 155.425 479.501 156.625 479.101C157.825 478.801 158.925 478.001 159.325 476.801C156.425 475.801 153.325 475.401 150.325 475.701C149.725 475.801 149.125 475.801 148.625 476.101C148.125 476.401 147.725 477.001 147.825 477.601C147.925 478.101 148.325 478.601 148.825 478.801C149.225 479.001 149.725 479.101 150.325 479.101Z" fill="white"/>
<path d="M153.325 334L153.025 337.3C150.025 365.6 147.425 384.1 147.325 407.4C147.125 430.7 148.125 454.1 145.625 477.3C151.025 476.7 156.425 477 161.725 478C165.425 434 173.425 396.2 180.325 355.6C181.325 349.6 180.825 341.8 180.025 334H153.325Z" fill="#352F6C"/>
<path d="M159.025 371.2C165.325 354.1 173.525 369.4 178.925 334H153.325L153.025 337.3C150.025 365.6 147.425 384.1 147.325 407.4C147.125 430.7 148.125 454.1 145.625 477.3C147.025 477.2 148.425 477.1 149.825 477C149.425 446.2 148.225 400.1 159.025 371.2Z" fill="#292666"/>
<path d="M159.025 476.899L158.625 476.699C161.825 436.499 168.725 400.699 178.125 359.199L178.525 359.399C169.125 400.899 162.225 436.799 159.025 476.899Z" fill="#7D95C9"/>
<path d="M173.025 343.101C173.025 342.201 173.025 341.201 173.025 340.201C167.225 340.401 161.525 340.801 155.725 341.401C155.225 343.001 154.725 344.601 154.225 346.201C160.425 345.201 166.725 344.501 173.125 344.201C173.125 343.801 173.125 343.401 173.025 343.101Z" fill="white"/>
<path d="M174.225 340.1C174.325 341.1 174.225 342.1 174.325 343C174.325 343.3 174.325 343.7 174.325 344C174.925 344 175.625 343.9 176.225 343.9C176.225 342.6 176.225 341.2 176.225 339.9C175.625 340.1 174.925 340.1 174.225 340.1Z" fill="white"/>
<path d="M189.025 344C191.525 344.1 193.925 344.2 196.325 344.4C196.025 342.9 195.825 341.5 195.525 340C193.325 339.9 191.125 339.9 188.925 339.9C188.925 341.3 188.925 342.7 189.025 344Z" fill="white"/>
<path d="M187.825 344C187.825 342.6 187.825 341.3 187.725 339.9C186.925 339.9 186.225 339.9 185.425 339.9C185.725 341.2 185.725 342.6 185.725 343.9C186.425 344 187.125 344 187.825 344Z" fill="white"/>
<path d="M184.125 339.9C181.925 339.9 179.625 339.9 177.425 340C177.425 341.3 177.425 342.6 177.425 344C179.825 343.9 182.125 343.9 184.525 344C184.625 342.6 184.525 341.2 184.125 339.9Z" fill="#FFD255"/>
<path d="M169.525 277.699C169.625 277.999 169.625 278.399 169.525 278.799C169.125 280.799 168.625 282.699 168.225 284.699C164.825 282.099 164.625 276.799 161.625 273.699C163.925 274.699 166.225 275.799 168.525 276.799C168.925 276.999 169.325 277.299 169.525 277.699Z" fill="#352F6C"/>
<path d="M187.125 272.199C175.025 267.299 163.725 266.799 150.625 268.199C147.325 268.499 143.825 269.299 141.725 271.699C139.325 274.499 139.825 278.499 140.525 281.999C144.625 301.599 152.625 320.899 151.825 340.899C166.725 338.599 181.925 337.999 196.925 338.899C193.325 322.299 192.725 307.299 195.725 290.699C196.425 286.799 195.925 281.399 193.325 278.199C192.025 276.499 189.225 272.999 187.125 272.199Z" fill="#E8E9EB"/>
<path d="M171.425 255.4C167.625 256.1 161.525 256.4 157.725 255.7C158.825 261.1 159.425 263.5 157.525 268.7C181.625 275 175.025 273.6 175.425 272.1C172.025 267.3 172.025 261.3 171.425 255.4Z" fill="#E7A988"/>
<path d="M175.325 272.2C172.025 267.4 172.025 261.3 171.325 255.5C167.925 256.1 162.925 256.4 159.125 256C159.925 260.8 161.325 265.5 162.725 270.2C180.525 274.8 174.925 273.6 175.325 272.2Z" fill="#D88568"/>
<path d="M173.225 267.6C172.025 263.8 171.825 259.6 171.425 255.4C168.125 256 163.225 256.3 159.425 256C160.025 263.3 166.425 267.1 173.225 267.6Z" fill="#352F6C"/>
<path d="M167.625 239.3C165.525 238.4 163.225 238.3 161.025 238.9C158.625 239.6 155.625 240.4 154.025 242.5C152.425 244.6 152.525 247.5 153.325 250C154.925 254.6 158.225 258.6 162.725 260.5C167.325 262.5 170.525 262.3 174.325 261.6C175.525 261.4 176.325 260.3 176.225 259.1C175.925 256.2 175.825 253.5 174.825 250.9C174.525 250 173.625 249.4 173.325 248.5C173.025 247.6 173.425 246.8 173.125 245.9C172.025 243 170.525 240.6 167.625 239.3Z" fill="#E7A988"/>
<path d="M165.525 261.6C168.725 262.5 171.325 262.3 174.225 261.7C175.425 261.5 176.225 260.4 176.125 259.2C176.125 258.7 176.025 258.3 176.025 257.9C172.925 261.2 169.325 262 165.525 261.6Z" fill="#D88568"/>
<path d="M160.525 246.2C164.125 246 165.125 246 168.125 245C169.925 244.8 171.025 244.1 171.725 243.2C170.725 241.5 169.425 240.2 167.525 239.4C164.925 238.2 161.825 238.7 159.025 239.6C157.125 240.2 155.125 241 153.925 242.7C152.325 244.8 152.425 247.7 153.225 250.2C154.525 254 157.025 257.4 160.425 259.5C160.625 255 158.025 250.4 160.525 246.2Z" fill="#D88568"/>
<path d="M173.825 233C173.225 234.3 172.125 235.3 170.925 235.9C171.425 235.4 171.725 234.6 171.725 233.9C170.525 235.6 168.425 236.4 166.325 236.8C164.225 237.2 162.125 237.1 160.125 237.4C158.025 237.7 155.925 238.3 154.525 239.9C152.925 241.6 150.625 243.9 151.425 246.4C150.525 247.6 150.125 249.1 150.425 250.5C150.825 252.3 152.325 253.8 153.825 254.8C155.325 255.9 157.125 256.8 158.325 258.2C158.725 256.9 158.925 255.5 158.925 254.1C159.525 254.5 160.025 255 160.525 255.5C160.925 255.6 161.225 255.2 161.325 254.8C161.325 254.4 160.925 253.1 160.725 252.8C160.225 251.9 159.825 252.1 159.325 251.3C159.225 251 159.025 250.8 158.925 250.5C158.925 248.7 159.025 247 159.525 245.4C159.725 245.4 159.825 245.4 160.025 245.3C162.825 245 165.625 245 168.225 244C170.825 243 173.125 240.7 173.225 238C172.825 238.4 172.325 238.8 171.925 239.2C173.025 237.3 173.725 235.1 173.825 233Z" fill="#352F6C"/>
<path d="M161.425 255.299C161.325 254.699 158.325 252.899 157.725 253.099C157.125 253.299 156.725 253.899 156.725 254.499C156.625 255.099 156.825 255.699 157.125 256.299C157.425 257.099 157.925 257.799 158.525 258.399C158.925 258.899 159.425 259.299 160.025 259.499C160.625 259.699 161.425 259.499 161.725 258.899L161.425 255.299Z" fill="#E7A988"/>
<path d="M195.725 290.7C196.425 286.8 195.925 281.4 193.325 278.2C191.925 276.5 189.125 273 187.025 272.2C184.825 271.3 182.625 270.6 180.425 269.9C188.525 291.8 186.725 315.4 187.525 338.5C190.625 338.6 193.725 338.7 196.825 338.9C193.425 322.4 192.725 307.3 195.725 290.7Z" fill="#352F6C"/>
<path d="M181.925 338.801C181.825 338.801 181.725 338.801 181.725 338.701C181.625 338.601 181.725 338.401 181.825 338.401L185.425 336.401C185.125 336.101 184.725 335.901 184.325 335.901C184.225 335.901 184.125 335.801 184.125 335.701C184.125 335.601 184.225 335.501 184.325 335.401C185.325 335.201 185.925 334.201 186.025 333.201C186.125 332.301 185.825 331.301 185.525 330.401L185.425 330.101C183.725 324.401 183.525 318.301 183.425 312.401C183.325 308.201 182.825 303.401 182.325 298.701C181.825 294.001 181.325 289.201 181.225 285.001C181.225 284.901 181.325 284.801 181.425 284.801C181.525 284.801 181.625 284.901 181.625 285.001C181.725 289.201 182.225 294.001 182.725 298.701C183.225 303.401 183.725 308.201 183.825 312.401C183.925 318.201 184.125 324.301 185.825 329.901L185.925 330.201C186.225 331.201 186.525 332.201 186.425 333.201C186.325 334.101 185.925 335.001 185.125 335.501C185.525 335.701 185.825 335.901 186.025 336.301C186.125 336.401 186.025 336.601 185.925 336.601L182.125 338.701C182.025 338.801 182.025 338.801 181.925 338.801Z" fill="#352F6C"/>
<path d="M154.425 266.1C153.825 266.1 153.225 267.9 152.625 267.9C151.525 268 151.625 268.1 150.525 268.3C147.225 268.7 143.725 269.4 141.625 272C139.225 275 140.025 279.3 140.425 283.1C143.325 309.6 155.625 320 149.325 360.6C154.325 359.8 160.825 358.3 166.725 357.4C170.425 356.8 173.125 353.5 172.925 349.8C171.825 330.4 171.125 303.1 168.725 285.5C167.725 277.4 161.125 270.1 154.425 266.1Z" fill="#7D95C9"/>
<path d="M153.125 342.199C158.525 341.399 163.425 337.999 166.025 333.299C162.025 336.599 157.525 339.399 153.125 342.199Z" fill="#C7D3DD"/>
<path d="M140.125 279.799C140.225 280.899 140.325 281.899 140.525 282.999C141.125 288.599 142.125 293.499 143.325 298.199C148.625 310.499 159.325 319.799 171.825 325.299C171.425 317.499 171.025 309.599 170.525 302.199C157.425 297.899 145.525 291.699 140.125 279.799Z" fill="#352F6C"/>
<path d="M171.225 355C171.125 355 171.025 354.9 171.025 354.8C170.225 335.1 167.025 315.5 161.625 296.5C161.625 296.4 161.625 296.4 161.625 296.3C161.625 296.2 161.725 296.2 161.825 296.2C163.425 295.9 164.925 295.3 166.325 294.4L162.025 293.8C161.925 293.8 161.925 293.8 161.825 293.7C161.825 293.6 161.725 293.6 161.825 293.5C163.825 284 160.025 273.7 152.225 268C152.125 267.9 152.125 267.8 152.225 267.7C152.325 267.6 152.425 267.6 152.525 267.7C160.325 273.5 164.325 283.8 162.325 293.4L167.025 294C167.125 294 167.225 294.1 167.225 294.2C167.225 294.3 167.225 294.4 167.125 294.4C165.625 295.4 163.925 296.2 162.125 296.5C167.525 315.4 170.625 335 171.525 354.6C171.525 354.9 171.425 355 171.225 355Z" fill="#352F6C"/>
<path d="M149.625 360.2C149.525 360.2 149.425 360.2 149.425 360.1C149.325 360 149.425 359.8 149.525 359.8C152.425 358.2 155.925 357.9 159.125 357.6C159.625 357.6 160.125 357.5 160.625 357.5C164.225 357.1 168.225 356.4 170.925 353.7C171.025 353.6 171.125 353.6 171.225 353.7C171.325 353.8 171.325 353.9 171.225 354C168.425 356.8 164.325 357.5 160.625 357.9C160.125 357.9 159.625 358 159.125 358C155.925 358.3 152.525 358.6 149.625 360.1C149.725 360.2 149.625 360.2 149.625 360.2Z" fill="#352F6C"/>
<path d="M153.225 341.399C153.125 341.399 153.025 341.399 153.025 341.299C152.925 341.199 153.025 340.999 153.125 340.999C157.425 338.299 161.725 335.499 165.925 332.499C166.025 332.399 166.125 332.399 166.225 332.599C166.325 332.699 166.325 332.799 166.125 332.899C162.025 335.899 157.725 338.699 153.325 341.399C153.325 341.399 153.325 341.399 153.225 341.399Z" fill="#352F6C"/>
<path d="M188.725 273.199C195.225 278.699 194.925 283.099 198.225 290.999C200.425 296.099 202.825 303.499 203.525 308.999C204.125 313.699 202.925 319.499 202.125 324.199C200.325 334.299 200.325 343.099 197.425 352.899C194.625 349.599 191.725 347.299 191.325 342.999C191.125 341.299 191.425 339.499 191.725 337.799C192.825 331.799 194.225 325.799 193.725 319.699C193.325 313.699 191.125 307.999 189.625 302.099C187.525 293.599 187.025 284.899 186.525 276.199L188.725 273.199Z" fill="#98A9D8"/>
<path d="M187.325 285.9C187.825 291.4 188.525 296.8 189.825 302.1C191.225 307.9 193.425 313.7 193.925 319.7C194.325 325.8 192.925 331.8 191.925 337.8C191.625 339.5 191.325 341.3 191.525 343C191.925 347.3 194.825 349.6 197.625 352.9C197.825 352.2 198.025 351.5 198.225 350.8C198.525 328.1 199.325 305.5 187.325 285.9Z" fill="#352F6C"/>
<path d="M178.425 306.399C179.225 301.499 177.625 300.099 174.525 296.099C171.425 292.099 168.625 292.399 164.625 289.399C159.525 285.599 154.425 276.299 149.325 272.499C148.125 271.599 146.825 270.699 145.325 270.299C142.425 269.699 139.325 271.699 138.025 274.299C136.725 276.999 136.825 280.199 137.425 283.099C138.825 289.799 142.725 295.899 147.525 300.699C152.425 305.499 158.225 309.299 164.225 312.699C167.525 314.599 171.625 316.399 175.125 314.899C177.825 313.799 177.925 309.299 178.425 306.399Z" fill="#98A9D8"/>
<path d="M139.625 285.298C138.725 280.598 140.325 275.598 143.825 272.298C142.725 271.698 141.425 272.498 140.625 273.398C139.125 274.998 138.225 276.998 138.025 279.198C137.825 281.398 138.425 283.498 139.625 285.298Z" fill="#C7D3DD"/>
<path d="M146.925 274.898C147.225 274.398 146.825 273.598 146.225 273.498C145.725 273.398 145.225 273.798 145.125 274.298C145.025 274.798 145.525 275.298 146.025 275.298C146.425 275.398 146.725 275.198 146.925 274.898Z" fill="#C7D3DD"/>
<path d="M163.725 289.699C161.825 293.099 161.225 297.299 162.025 301.099C162.825 304.999 165.125 308.499 168.325 310.799C165.925 304.899 165.825 298.099 168.025 291.999C166.525 291.299 165.125 290.499 163.725 289.699Z" fill="#352F6C"/>
<path d="M173.725 259.899C174.625 259.499 175.625 259.299 176.625 259.199C177.925 258.999 179.325 258.899 180.625 259.199C182.025 259.499 182.925 260.399 184.225 260.899C184.725 261.099 185.025 261.599 184.825 262.099C184.625 262.699 184.425 263.199 184.225 263.899C184.125 264.299 184.225 264.999 183.825 265.099C183.425 265.199 183.025 264.899 182.825 264.499C182.725 264.099 182.725 263.699 182.825 263.199C181.925 264.099 180.825 264.899 179.625 265.399C179.325 266.699 179.325 268.099 179.525 269.499C177.425 269.299 175.225 268.999 173.125 268.599C172.625 268.499 172.025 268.399 171.725 267.899C171.625 267.599 171.525 267.299 171.525 266.999C171.525 265.399 171.925 264.099 171.925 262.399C172.425 261.499 172.725 260.399 173.725 259.899Z" fill="#E7A988"/>
<path d="M171.825 264.6C171.725 265.4 171.625 266.2 171.625 267C171.625 267.3 171.625 267.6 171.825 267.9C172.125 268.4 172.625 268.5 173.225 268.6C175.325 269 177.425 269.3 179.625 269.5C179.425 268.6 179.425 267.6 179.525 266.7C176.825 266.3 174.325 265.6 171.825 264.6Z" fill="#D88568"/>
<path d="M174.025 316C176.025 315.5 177.625 313.7 178.325 311.7C179.025 309.7 179.125 307.6 179.225 305.5C179.625 293.7 180.525 280.2 180.925 268.4C178.325 267.6 172.225 267.3 169.725 266.5C168.325 279.7 163.525 293.4 165.325 306.6C165.625 309 166.225 311.5 167.725 313.4C169.225 315.2 171.725 316.5 174.025 316Z" fill="#98A9D8"/>
<path d="M169.625 274.299C168.025 280.299 166.425 286.299 165.625 292.499C164.825 298.699 164.825 304.999 166.425 310.999C165.825 298.699 166.825 286.299 169.625 274.299Z" fill="#C7D3DD"/>
<path d="M180.725 272.199C176.825 272.199 173.025 271.499 169.325 270.199C169.225 270.199 169.125 269.999 169.225 269.899C169.225 269.799 169.425 269.699 169.525 269.799C173.125 271.099 176.925 271.799 180.725 271.799C180.825 271.799 180.825 271.799 180.925 271.799C181.025 271.799 181.125 271.899 181.125 271.999C181.125 272.099 181.025 272.199 180.925 272.199C180.825 272.199 180.725 272.199 180.725 272.199Z" fill="#352F6C"/>
<path d="M196.725 355.799C197.725 355.999 198.825 356.099 199.725 356.199C196.125 338.499 192.725 310.199 195.725 292.399C196.425 288.199 196.525 282.199 194.025 278.799C192.625 276.999 189.625 272.999 187.525 272.099C185.425 271.199 182.425 270.299 180.325 269.699C182.125 272.499 184.325 275.999 184.725 278.999C188.225 298.199 188.225 328.399 190.525 349.399C190.925 352.599 193.425 355.299 196.725 355.799Z" fill="#7D95C9"/>
<path d="M193.225 353.598C193.125 353.598 193.025 353.498 193.025 353.398C191.525 338.598 190.825 313.398 192.125 299.198L188.925 299.698C188.825 299.698 188.725 299.698 188.625 299.598C188.625 299.498 188.625 299.398 188.725 299.298L192.625 296.598C190.725 287.698 187.525 279.198 182.925 271.298C182.825 271.198 182.925 270.998 183.025 270.998C183.125 270.898 183.325 270.998 183.325 271.098C187.925 279.098 191.225 287.698 193.025 296.698C193.025 296.798 193.025 296.898 192.925 296.898L189.725 299.098L192.225 298.698C192.325 298.698 192.325 298.698 192.425 298.798C192.525 298.798 192.525 298.898 192.525 298.998C191.225 313.098 191.925 338.598 193.425 353.398C193.525 353.398 193.425 353.498 193.225 353.598Z" fill="#352F6C"/>
<path d="M198.925 355.298C196.725 355.298 194.525 354.598 192.725 353.298C192.625 353.198 192.625 353.098 192.625 352.998C192.725 352.898 192.825 352.898 192.925 352.898C194.725 354.198 197.025 354.898 199.225 354.798C199.325 354.798 199.425 354.898 199.425 354.998C199.425 355.098 199.325 355.198 199.225 355.198C199.125 355.298 199.025 355.298 198.925 355.298Z" fill="#352F6C"/>
<path d="M196.125 337.599C196.025 337.599 196.025 337.599 196.025 337.499L193.925 335.799C193.825 335.699 193.825 335.599 193.925 335.499C194.025 335.399 194.125 335.399 194.225 335.499L196.325 337.199C196.425 337.299 196.425 337.399 196.325 337.499C196.225 337.499 196.125 337.599 196.125 337.599Z" fill="#352F6C"/>
<path d="M157.625 254.199C158.325 254.399 159.025 254.799 159.625 255.399C159.725 255.499 159.725 255.599 159.825 255.699C159.825 255.899 159.625 256.099 159.625 256.299C159.425 256.599 159.625 257.099 160.025 257.299C160.225 257.399 160.525 257.399 160.525 257.599C160.525 257.699 160.425 257.799 160.325 257.899C160.025 258.099 159.925 258.499 160.125 258.899C159.725 258.599 159.325 258.299 159.025 257.899C158.725 257.499 158.625 256.899 158.925 256.499C158.925 256.399 159.025 256.399 158.925 256.299H158.825C158.425 256.299 158.025 255.999 157.825 255.599C157.425 255.099 157.425 254.599 157.625 254.199Z" fill="#D88568"/>
<path d="M193.04 39.1758L178.829 23.9263C177.323 22.3101 174.792 22.2209 173.176 23.727L157.926 37.9382C156.31 39.4443 156.221 41.9754 157.727 43.5916L171.938 58.8411C173.444 60.4572 175.975 60.5464 177.591 59.0403L192.841 44.8292C194.457 43.3231 194.546 40.792 193.04 39.1758Z" fill="white"/>
</svg>